<!DOCTYPE svg PUBLIC "-//W3C//DTD SVG 1.1//EN" "http://www.w3.org/Graphics/SVG/1.1/DTD/svg11.dtd">
<!-- Uploaded to: SVG Repo, www.svgrepo.com, Transformed by: SVG Repo Mixer Tools -->
<svg width="64px" height="64px" viewBox="-6.72 -6.72 37.44 37.44" fill="none" xmlns="http://www.w3.org/2000/svg" stroke="4C956C" stroke-width="2.112">
<g id="SVGRepo_bgCarrier" stroke-width="0"/>
<g id="SVGRepo_tracerCarrier" stroke-linecap="round" stroke-linejoin="round"/>
<g id="SVGRepo_iconCarrier"> <path d="M14 7V7C14 6.06812 14 5.60218 13.8478 5.23463C13.6448 4.74458 13.2554 4.35523 12.7654 4.15224C12.3978 4 11.9319 4 11 4H8C6.11438 4 5.17157 4 4.58579 4.58579C4 5.17157 4 6.11438 4 8V11C4 11.9319 4 12.3978 4.15224 12.7654C4.35523 13.2554 4.74458 13.6448 5.23463 13.8478C5.60218 14 6.06812 14 7 14V14" stroke="#4C956C"/> <rect x="10" y="10" width="10" height="10" rx="2" stroke="#4C956C"/> </g>
</svg>